<svg xmlns="http://www.w3.org/2000/svg" viewBox="-0.5 -0.5 24 24" fill="none" stroke="#000000" stroke-linecap="round" stroke-linejoin="round" id="Package-Search--Streamline-Lucide">
	<desc>
		Package Search Streamline Icon: https://streamlinehq.com
	</desc>
	<path d="M20.125 9.583333333333334V7.666666666666667a1.9166666666666667 1.9166666666666667 0 0 0 -0.9583333333333334 -1.6579166666666667l-6.708333333333334 -3.8333333333333335a1.9166666666666667 1.9166666666666667 0 0 0 -1.9166666666666667 0l-6.708333333333334 3.8333333333333335A1.9166666666666667 1.9166666666666667 0 0 0 2.875 7.666666666666667v7.666666666666667a1.9166666666666667 1.9166666666666667 0 0 0 0.9583333333333334 1.6579166666666667l6.708333333333334 3.8333333333333335a1.9166666666666667 1.9166666666666667 0 0 0 1.9166666666666667 0l1.9166666666666667 -1.0925" stroke-width="1">
	</path>
	<path d="m7.1875 4.092083333333333 8.625 4.935416666666667" stroke-width="1">
	</path>
	<path d="M3.152916666666667 6.708333333333334 11.5 11.5l8.347083333333334 -4.791666666666667" stroke-width="1">
	</path>
	<path d="m11.5 21.083333333333336 0 -9.583333333333334" stroke-width="1">
	</path>
	<path d="M15.333333333333334 14.854166666666668a2.3958333333333335 2.3958333333333335 0 1 0 4.791666666666667 0 2.3958333333333335 2.3958333333333335 0 1 0 -4.791666666666667 0" stroke-width="1">
	</path>
	<path d="M19.425416666666667 16.550416666666667 21.083333333333336 18.208333333333336" stroke-width="1">
	</path>
</svg>
